# xmcd
#
# Track frame offsets:
#	150
#	12709
#	28876
#	40342
#	55300
#	70771
#	92333
#	117521
#	136360
#	161776
#
# Disc length: 2407 seconds
#
# Revision: 0
# Processed by: cddbd v1.5.2PL0 Copyright (c) Steve Scherf et al.
# Submitted via: EZCDAudioConverter 6.0.5.1
#
DISCID=8c09650a
DTITLE=Artistes Variés - Le Country D'une Voix À L'autre, Vol.1
DYEAR=1900
DGENRE=
TTITLE0=Normand Grenier - À Ma Fenêtre
TTITLE1=Pierre Gauthier - La Semaine De Break
TTITLE2=Julie Pelletier - Tu As Mon Coeur Entre Tes Mains
TTITLE3=René Grondin - La Grosse Bertha
TTITLE4=Sylvie Carrière - Un Jour Dans Mes Bras, Le Lendemain Une Autre
TTITLE5=Jean-Guy Cadieux - Au Jour Le Jour
TTITLE6=Cathy Bruyère - Va T'en Loin D'ici
TTITLE7=Éric Labelle - Celle Que J'aimais
TTITLE8=Marcel Cusson - Il N'a Pas Trouvé L'amour
TTITLE9=Marc Morin - Jusqu'au Bout Du Monde
EXTD=
EXTT0=
EXTT1=
EXTT2=
EXTT3=
EXTT4=
EXTT5=
EXTT6=
EXTT7=
EXTT8=
EXTT9=
PLAYORDER=
